<mxfile host="app.diagrams.net" agent="Mozilla/5.0 (X11; Linux x86_64; rv:130.0) Gecko/20100101 Firefox/130.0" version="24.7.16">
  <diagram name="Page-1" id="qWaL7E824XajWzib-2zg">
    <mxGraphModel dx="1196" dy="807" grid="1" gridSize="10" guides="1" tooltips="1" connect="1" arrows="1" fold="1" page="1" pageScale="1" pageWidth="850" pageHeight="1100" math="0" shadow="0">
      <root>
        <mxCell id="0" />
        <mxCell id="1" parent="0" />
        <mxCell id="LqjrllnUB-1gponNADd0-1" value="" style="whiteSpace=wrap;html=1;" vertex="1" parent="1">
          <mxGeometry x="350" y="220" width="220" height="260" as="geometry" />
        </mxCell>
        <mxCell id="LqjrllnUB-1gponNADd0-16" style="rounded=0;orthogonalLoop=1;jettySize=auto;html=1;exitX=0.5;exitY=0;exitDx=0;exitDy=0;entryX=0.5;entryY=0;entryDx=0;entryDy=0;endArrow=none;endFill=0;" edge="1" parent="1" source="LqjrllnUB-1gponNADd0-7" target="LqjrllnUB-1gponNADd0-8">
          <mxGeometry relative="1" as="geometry" />
        </mxCell>
        <mxCell id="LqjrllnUB-1gponNADd0-17" style="rounded=0;orthogonalLoop=1;jettySize=auto;html=1;exitX=0.5;exitY=1;exitDx=0;exitDy=0;entryX=0.5;entryY=1;entryDx=0;entryDy=0;" edge="1" parent="1" source="LqjrllnUB-1gponNADd0-7" target="LqjrllnUB-1gponNADd0-8">
          <mxGeometry relative="1" as="geometry" />
        </mxCell>
        <mxCell id="LqjrllnUB-1gponNADd0-7" value="" style="shape=actor;whiteSpace=wrap;html=1;" vertex="1" parent="1">
          <mxGeometry x="190" y="290" width="73.33" height="110" as="geometry" />
        </mxCell>
        <mxCell id="LqjrllnUB-1gponNADd0-8" value="" style="shape=actor;whiteSpace=wrap;html=1;rotation=90;direction=south;" vertex="1" parent="1">
          <mxGeometry x="424.995" y="308.335" width="110" height="73.33" as="geometry" />
        </mxCell>
        <mxCell id="LqjrllnUB-1gponNADd0-9" value="" style="verticalLabelPosition=bottom;verticalAlign=top;html=1;shape=mxgraph.basic.sun" vertex="1" parent="1">
          <mxGeometry x="30" y="295" width="100" height="100" as="geometry" />
        </mxCell>
        <mxCell id="LqjrllnUB-1gponNADd0-4" value="" style="ellipse;whiteSpace=wrap;html=1;" vertex="1" parent="1">
          <mxGeometry x="350" y="340" width="10" height="20" as="geometry" />
        </mxCell>
      </root>
    </mxGraphModel>
  </diagram>
</mxfile>
